Coordinates
version=1
nRows=54
nColumns=12
inDegrees=yes

Units are S.I. units (second, meters, Newtons, ...)
Angles are in degrees

endheader
time	SC_y	SC_z	SC_x	AC_y	AC_z	AC_x	GH_y	GH_z	GH_yy	EL_x	PS_y
       0.0               -40.7         -4.548          65.61          42.57         -18.68          -3.33          86.32          42.77          146.6          89.64          55.18
   0.04854               -40.7         -4.543           65.6          42.57         -18.67          -3.33          86.33          42.77          146.6          89.64          55.19
   0.09708              -40.69         -4.538           65.6          42.58         -18.67          -3.33          86.34          42.78          146.5          89.63           55.2
    0.1456              -40.69         -4.532           65.6          42.58         -18.67          -3.33          86.36          42.78          146.5          89.63          55.21
    0.1942              -40.69         -4.526          65.59          42.59         -18.67          -3.33          86.37          42.79          146.5          89.62          55.22
    0.2427              -40.69          -4.52          65.59          42.59         -18.67          -3.33          86.38           42.8          146.5          89.62          55.24
    0.2913              -40.69         -4.513          65.58           42.6         -18.67          -3.33          86.39           42.8          146.4          89.61          55.25
    0.3398              -40.69         -4.506          65.58           42.6         -18.67          -3.33          86.41          42.81          146.4          89.61          55.26
    0.3883              -40.69         -4.498          65.57          42.61         -18.67          -3.33          86.42          42.82          146.4           89.6          55.28
    0.4369              -40.68          -4.49          65.57          42.61         -18.67          -3.33          86.44          42.82          146.3          89.59          55.29
    0.4854              -40.68         -4.481          65.56          42.62         -18.67          -3.33          86.46          42.83          146.3          89.59          55.31
     0.534              -40.68         -4.471          65.55          42.63         -18.67          -3.33          86.48          42.84          146.3          89.58          55.33
    0.5825              -40.68          -4.46          65.55          42.63         -18.67         -3.331           86.5          42.85          146.2          89.57          55.35
    0.6311              -40.67         -4.449          65.54          42.64         -18.67         -3.331          86.52          42.86          146.2          89.56          55.37
    0.6796              -40.67         -4.437          65.53          42.65         -18.66         -3.331          86.55          42.87          146.1          89.55          55.39
    0.7281              -40.67         -4.424          65.52          42.66         -18.66         -3.331          86.57          42.88          146.1          89.54          55.42
    0.7767              -40.66          -4.41          65.51          42.67         -18.66         -3.331           86.6           42.9          146.0          89.53          55.45
    0.8252              -40.66         -4.394           65.5          42.68         -18.66         -3.331          86.63          42.91          146.0          89.52          55.48
    0.8738              -40.66         -4.377          65.48           42.7         -18.66         -3.331          86.67          42.93          145.9           89.5          55.51
    0.9223              -40.65         -4.358          65.47          42.71         -18.66         -3.331          86.71          42.94          145.8          89.49          55.54
    0.9708              -40.65         -4.338          65.46          42.72         -18.66         -3.331          86.75          42.96          145.7          89.47          55.58
     1.019              -40.64         -4.315          65.44          42.74         -18.65         -3.331          86.79          42.98          145.6          89.45          55.63
     1.068              -40.64          -4.29          65.42          42.76         -18.65         -3.331          86.84          43.01          145.5          89.43          55.67
     1.116              -40.63         -4.262           65.4          42.78         -18.65         -3.331           86.9          43.03          145.4          89.41          55.73
     1.165              -40.62         -4.232          65.38           42.8         -18.65         -3.331          86.96          43.06          145.3          89.39          55.79
     1.214              -40.62         -4.197          65.35          42.83         -18.64         -3.331          87.03          43.09          145.1          89.36          55.85
     1.262              -40.61         -4.159          65.33          42.85         -18.64         -3.331          87.11          43.13          145.0          89.33          55.93
     1.311               -40.6         -4.116           65.3          42.89         -18.63         -3.331          87.19          43.17          144.8          89.29          56.01
     1.359              -40.59         -4.067          65.26          42.92         -18.63         -3.331          87.29          43.21          144.6          89.26           56.1
     1.408              -40.57         -4.012          65.22          42.96         -18.62         -3.331           87.4          43.26          144.4          89.21          56.21
     1.456              -40.56         -3.948          65.17          43.01         -18.62         -3.331          87.53          43.32          144.1          89.16          56.33
     1.505              -40.54         -3.876          65.12          43.06         -18.61         -3.331          87.68          43.39          143.8           89.1          56.47
     1.553              -40.52         -3.792          65.06          43.12          -18.6         -3.332          87.85          43.46          143.5          89.03          56.63
     1.602               -40.5         -3.694          64.99          43.19         -18.59         -3.332          88.04          43.55          143.1          88.96          56.81
      1.65              -40.47         -3.581          64.91          43.28         -18.58         -3.332          88.27          43.66          142.6          88.87          57.03
     1.699              -40.44         -3.446          64.81          43.37         -18.57         -3.332          88.54          43.78          142.0          88.76          57.29
     1.748              -40.41         -3.287           64.7          43.49         -18.56         -3.332          88.87          43.93          141.4          88.63          57.59
     1.796              -40.36         -3.095          64.56          43.63         -18.54         -3.333          89.25           44.1          140.6          88.48          57.96
     1.845              -40.31         -2.864          64.39           43.8         -18.52         -3.333          89.72          44.31          139.6          88.29           58.4
     1.893              -40.25         -2.581          64.19          44.01         -18.49         -3.333          90.29          44.57          138.5          88.06          58.94
     1.942              -40.17         -2.232          63.93          44.26         -18.46         -3.334          90.99          44.89          137.0          87.78           59.6
      1.99              -40.07         -1.796          63.62          44.58         -18.41         -3.335          91.87          45.29          135.2          87.44          60.44
     2.039              -39.94         -1.248          63.22          44.98         -18.36         -3.336          92.98           45.8          133.0           87.0          61.48
     2.087              -39.78        -0.5511          62.72          45.49          -18.3         -3.337          94.38          46.43          130.1          86.44          62.81
     2.136              -39.58         0.3411          62.07          46.14         -18.21         -3.338          96.18          47.25          126.4          85.72          64.52
     2.184              -39.31          1.486          61.24          46.97          -18.1          -3.34          98.49           48.3          121.7           84.8           66.7
     2.233              -38.98          2.949          60.19          48.04         -17.97         -3.342          101.4          49.64          115.7          83.63           69.5
     2.281              -38.56          4.788          58.86          49.38         -17.79         -3.345          105.1          51.33          108.1          82.16          73.01
      2.33              -38.04          7.029          57.24          51.01         -17.58         -3.349          109.7          53.38          98.84          80.36          77.28
     2.379              -37.45          9.626          55.36          52.91         -17.33         -3.353          114.9          55.77          88.12          78.28          82.24
     2.427               -36.8          12.44          53.32          54.96         -17.07         -3.357          120.6          58.34          76.52          76.03          87.61
     2.476              -36.16          15.25          51.29          57.01          -16.8         -3.362          126.2          60.92          64.92          73.77          92.98
     2.524              -35.56          17.85          49.41          58.91         -16.55         -3.366          131.5           63.3          54.21          71.69          97.94
     2.573              -35.05          20.09          47.79          60.54         -16.34         -3.369          136.0          65.36          44.97          69.89          102.2
